<?xml version="1.0" encoding="UTF-8"?>
<svg version="1.1" viewBox="0 0 173.46 182.54" xmlns="http://www.w3.org/2000/svg" xmlns:xlink="http://www.w3.org/1999/xlink">
 <defs>
  <linearGradient id="ae" x1="136.82" x2="138.91" y1="485.8" y2="499.69" gradientTransform="translate(249.35 -79.225)" gradientUnits="userSpaceOnUse" xlink:href="#r"/>
  <linearGradient id="r">
   <stop stop-color="#ffe296" offset="0"/>
   <stop stop-color="#f95" offset="1"/>
  </linearGradient>
  <linearGradient id="ad" x1="142.84" x2="144.68" y1="518.05" y2="531.62" gradientTransform="translate(249.35 -79.225)" gradientUnits="userSpaceOnUse" xlink:href="#a"/>
  <linearGradient id="a">
   <stop stop-color="#f95" offset="0"/>
   <stop stop-color="#c05a00" offset="1"/>
  </linearGradient>
  <linearGradient id="ac" x1="75.141" x2="80.686" y1="518.14" y2="514.92" gradientTransform="translate(249.35 -79.225)" gradientUnits="userSpaceOnUse" xlink:href="#a"/>
  <radialGradient id="ag" cx="120.86" cy="598.71" r="26.904" gradientTransform="matrix(.99089 -7.2599e-5 9.742e-5 1.3297 250.94 -276.62)" gradientUnits="userSpaceOnUse">
   <stop offset="0"/>
   <stop stop-color="#410000" offset=".61035"/>
   <stop stop-color="#800000" offset="1"/>
  </radialGradient>
  <linearGradient id="af" x1="143.08" x2="147.23" y1="537.41" y2="543.88" gradientUnits="userSpaceOnUse">
   <stop stop-color="#fff" offset="0"/>
   <stop stop-color="#fff" stop-opacity="0" offset="1"/>
  </linearGradient>
  <linearGradient id="y" x1="127.38" x2="120.98" y1="535.07" y2="510.67" gradientUnits="userSpaceOnUse" xlink:href="#s"/>
  <linearGradient id="s">
   <stop stop-color="#0a4" offset="0"/>
   <stop offset="1"/>
  </linearGradient>
  <linearGradient id="z" x1="126.84" x2="124.63" y1="533.24" y2="510.99" gradientUnits="userSpaceOnUse" xlink:href="#s"/>
  <linearGradient id="ab" x1="151.75" x2="162.12" y1="509.71" y2="514.36" gradientTransform="translate(249.35 -79.225)" gradientUnits="userSpaceOnUse" xlink:href="#t"/>
  <linearGradient id="t">
   <stop stop-color="#b7fffe" offset="0"/>
   <stop stop-color="#fff" offset="1"/>
  </linearGradient>
  <linearGradient id="aa" x1="111.82" x2="122.78" y1="510.61" y2="514.8" gradientTransform="translate(249.35 -79.225)" gradientUnits="userSpaceOnUse" xlink:href="#t"/>
  <linearGradient id="v" x1="150.49" x2="151.69" y1="539.23" y2="547.56" gradientTransform="translate(249.35 -79.225)" gradientUnits="userSpaceOnUse">
   <stop stop-color="#faa" offset="0"/>
   <stop stop-color="#ff6767" offset="1"/>
  </linearGradient>
  <linearGradient id="w" x1="144.67" x2="148.87" y1="533.56" y2="553.26" gradientTransform="translate(249.35 -79.225)" gradientUnits="userSpaceOnUse" xlink:href="#r"/>
  <linearGradient id="x" x1="134.74" x2="132.95" y1="573.11" y2="630.44" gradientTransform="translate(249.35 -79.225)" gradientUnits="userSpaceOnUse" xlink:href="#a"/>
  <filter id="u" color-interpolation-filters="sRGB">
   <feGaussianBlur stdDeviation="2.4586399"/>
  </filter>
 </defs>
 <g transform="translate(-285.2 -386.31)">
  <rect x="309.35" y="408.49" width="143.93" height="143.93" ry="0" fill="#8fffc7" stroke="#fff" stroke-linejoin="round" stroke-width="5"/>
  <path d="m383.41 397.44c-6.2538 3.9018-7.6705 12.207-8.3438 18.406-2.8646 0.62017-3.6492 4.7867-6.6562 2.4375-4.7013-1.576-10.099-0.96163-13.906 2.3438-7.4538-1.556-18.146 5.7426-23.761 10.509-8.2894-0.39524-17.849 1.749-23.092 3.0221-2.8461-2.8072-6.3849-2.6982-11.679-3.0848 2.0787 1.6638 3.1292 2.7689 4.1027 4.1116-6.845 1.755-7.7238 7.4706-8.9777 11.348 1.5455-1.0468 2.9213-2.5626 5.8438-2.942-0.255 2.011-0.62569 4.0284-0.74107 7.8795 2.8613-2.7303 7.2442-6.6814 9.4554-7.308 6.459 3.7437 11.725 10.385 13.129 16.402 0.63572 3.2162 1.8668 3.5016 3.0813 4.7131-1.2716 10.916-1.3655 26.113-8.2376 35.131-3.2791 6.1207-4.0535 13.206-4.6562 20.062 2.0116-2.2675 3.2721-4.1273 4.567-5.2366-2.869 8.4676-2.2003 18.086-0.87947 25.955 1.399-2.0105 3.116-9.241 4.375-8.6562 1.5532 6.2973 6.9257 10.407 12.156 13.688 0.0124-2.3843-1.8216-7.0693-0.65625-8.625 12.461 5.8274 18.628 21.072 32.875 23.844 8.6845 1.9187 18.235 2.1693 26.813-0.1875 10.055-6.1138 11.029-19.593 16.781-28.781 3.6877-8.403 12.211-12.981 17.375-20.094 1.2263-2.2502 2.0005-4.7355 2.5-7.25 0.79103 0.9063 0.83176 2.6381 1.2589 3.1071 3.7371-3.0127 5.8042-10.613 5.8661-13.795 1.7934 0.79484 2.8762 1.4146 4.3482 2.4911 1.8367-4.2598 0.58589-10.329-0.0357-12.866 1.2019 0.82767 2.6295 2.9935 4.0312 5 1.6897-4.9749 1.107-11.026-0.15625-14.781 2.3596 1.395 4.2215 2.4242 5.7842 3.2736 0.22333-2.4542-1.5491-5.3559-4.4047-9.0548-4.7424-6.143-7.2422-8.8357-14.629-11.25-0.97412-4.9536-3.7784-9.7558-4.1628-14.587 1.9606-7.1921 5.6432-15.992 12.882-19.195 1.7737-0.0119 3.7363 0.0871 5.7646 0.53617-0.50737-1.8163-0.56935-2.8037-2.1967-4.2812 4.7175-3.1203 8.1105-4.292 11.366-6.8634-4.3958-2.9104-11.738-1.3782-14.497-0.1415-0.84451-1.1561-1.9296-2.3575-3.2637-2.3722-0.19769 1.0586-0.51816 2.7356-1.0962 4.1165-4.845 2.4275-12.1 6.171-16.453 9.037-3.9547-2.5304-9.1565-1.4207-12.094-5.375-3.4374-3.1419-8.8079-3.7432-12.719-1.1562-6.0557 0.7619-1.509-3.3356 0.59699-5.4107 5.6587-4.13 6.9808-6.2292-1.0345-4.1518-2.1602-0.39709-6.2941 3.6513-5.125-0.625 0.3482-4.1763 1.8936-8.1171 2.9063-12.156-1.4688 0.9375-2.9375 1.875-4.4063 2.8125z" fill="#005c05" fill-opacity=".34118" filter="url(#u)"/>
  <path d="m389.98 390.62c-6.2538 3.9018-7.6705 12.207-8.3438 18.406-2.8646 0.62017-3.6492 4.7867-6.6562 2.4375-4.7013-1.576-10.099-0.96163-13.906 2.3438-7.4538-1.556-18.146 5.7426-23.761 10.509-8.2894-0.39524-17.849 1.749-23.092 3.0221-2.8461-2.8072-6.3849-2.6982-11.679-3.0848 2.0787 1.6638 3.1292 2.7689 4.1027 4.1116-6.845 1.755-7.7238 7.4706-8.9777 11.348 1.5455-1.0468 2.9213-2.5626 5.8438-2.942-0.25499 2.011-0.62569 4.0284-0.74107 7.8795 2.8613-2.7303 7.2442-6.6814 9.4554-7.308 6.459 3.7437 11.725 10.385 13.129 16.402 0.63572 3.2162 1.8668 3.5016 3.0813 4.7131-1.2716 10.916-1.3655 26.113-8.2376 35.131-3.2791 6.1207-4.0535 13.206-4.6562 20.062 2.0116-2.2675 3.2721-4.1273 4.567-5.2366-2.869 8.4676-2.2003 18.086-0.87947 25.955 1.399-2.0105 3.116-9.241 4.375-8.6562 1.5532 6.2973 6.9257 10.407 12.156 13.688 0.0124-2.3843-1.8216-7.0693-0.65625-8.625 12.461 5.8274 18.628 21.072 32.875 23.844 8.6845 1.9187 18.235 2.1693 26.813-0.1875 10.055-6.1138 11.029-19.593 16.781-28.781 3.6877-8.403 12.211-12.981 17.375-20.094 1.2263-2.2502 2.0005-4.7355 2.5-7.25 0.79103 0.9063 0.83176 2.6381 1.2589 3.1071 3.7371-3.0127 5.8042-10.613 5.8661-13.795 1.7934 0.79484 2.8762 1.4146 4.3482 2.4911 1.8367-4.2598 0.58589-10.329-0.0357-12.866 1.2019 0.82767 2.6295 2.9935 4.0312 5 1.6897-4.9749 1.107-11.026-0.15625-14.781 2.3596 1.395 4.2215 2.4242 5.7842 3.2736 0.22333-2.4542-1.5491-5.3559-4.4047-9.0548-4.7424-6.143-7.2422-8.8357-14.629-11.25-0.97412-4.9536-3.7784-9.7558-4.1628-14.587 1.9606-7.1921 5.6432-15.992 12.882-19.195 1.7737-0.0119 3.7363 0.0871 5.7646 0.53617-0.50737-1.8163-0.56935-2.8037-2.1967-4.2812 4.7175-3.1203 8.1105-4.292 11.366-6.8634-4.3958-2.9104-11.738-1.3782-14.497-0.1415-0.84451-1.1561-1.9296-2.3575-3.2637-2.3722-0.19769 1.0586-0.51816 2.7356-1.0962 4.1165-4.845 2.4275-12.1 6.171-16.453 9.037-3.9547-2.5304-9.1565-1.4207-12.094-5.375-3.4374-3.1419-8.8079-3.7432-12.719-1.1562-6.0557 0.7619-1.509-3.3356 0.59699-5.4107 5.6587-4.13 6.9808-6.2292-1.0345-4.1518-2.1602-0.39709-6.294 3.6513-5.125-0.625 0.34819-4.1763 1.8936-8.1171 2.9062-12.156l-4.4062 2.8125z" stroke="#000" stroke-linejoin="round" stroke-width="3"/>
  <path d="m391.04 392.31s-8.1064 4.9292-6.8438 18.188c0 0-3.3936 0.22589-4.6562 2.625l3.2812 4.3125s-7.0539-5.6039-14.125-4.5938c-7.0711 1.0102-18.062 15.531-18.062 15.531s1.4864-7.4116 9.0625-13.094c-14.254 3.4344-13.514 5.8917-24.344 14.406l1-2.6562s-3.0455-0.75635-7.8438-0.125c-4.7982 0.63134-15.656 3.4062-15.656 3.4062s0.017-2.2698-4.7812-3.4062c1.5152 1.0102 2.1562 3.4062 2.1562 3.4062s-5.3095-0.99588-8.7188 4.8125c2.2728-1.894 5.6875-1.1562 5.6875-1.1562s-1.5274 1.1494-1.9062 4.9375c2.7779-3.283 6.5625-4.4375 6.5625-4.4375s8.4746 5.6896 11 8.5938 3.7622 10.102 5.6562 12.375c1.894 2.2728 4.4375 1.25 4.4375 1.25l-2.1562 1.0312s-1.5109 18.674-3.5312 26.25c-2.0203 7.5761-7.201 9.6168-8.9688 22.875 0 0 4.9332-6.8361 8.4688-7.5938-8.46 12.122-6.4375 27.656-6.4375 27.656s2.6309-6.9324 5.1562-7.4375c-2.2728 9.4702 7.5938 15.656 7.5938 15.656s-0.88642-4.9484 0.25-6.9688c5.6821 1.2627 9.8558 4.8207 21.094 16.438 11.238 11.617 27.281 9.6014 36.625 8.8438 9.3439-0.75761 12.478-16.678 17.781-26.906 5.3033-10.228 9.7191-13.257 15.906-18.812 6.1872-5.5558 5.4375-18.812 5.4375-18.812 2.2728 1.7678 3.1562 8.1875 3.1562 8.1875s4.2939-5.1739 3.0312-12.75l5.0625 2.4062s1.3844-6.8014-2.6562-14.125c3.4093 0.25254 6.6875 4.5312 6.6875 4.5312s1.3907-7.6954-3.2812-13.125c2.7779 0 6.8125 2.4062 6.8125 2.4062s-8.3355-14.905-21.594-15.031c0.63135-0.88388 2.1697-1.4075 3.9375-1.2812 0 0-2.7866-11.102-8.4688-22.719 2.6516 1.894 4.9062 6.6875 4.9062 6.6875s2.776-12.622 12.625-19.188c1.0102-0.50508 4.4375-0.125 4.4375-0.125s-0.37833-1.7525-3.1562-1.5c2.5254-1.894 5.7955-4.3209 10.594-6.5938-4.2932-1.6415-10.219 2.6562-10.219 2.6562s-0.11231-2.0274-1.375-2.4062c0.12627 2.1466-1.2812 4.4375-1.2812 4.4375l-1-2.1562s-13.38 6.8108-16.031 10.094c0 0-3.5506-2.4962-7.8438-2.875 0.50508 1.1364 0 3.1562 0 3.1562s-5.8141-9.22-11.875-9.0938c-6.0609 0.12627-9.8438 6.9375-9.8438 6.9375s0.25714-3.1647 2.6562-5.4375l-5.1875-0.625c2.1466-4.9245 6.8438-8.8438 6.8438-8.8438s-4.8222 0.50206-6.9688 3.4062c-0.63135-2.3991-1.6191-4.9124 0.90625-13.625zm-21.125 27.406c14.843-0.18996 21.412 18.886 16.469 30.844-0.22314 1.1379-0.61931 2.0781-1.1562 2.875 5.0523-1.2179 10.52-1.7762 16.5-1.5938 0.71313-0.0147 1.4119-0.0492 2.125-0.0625-3.3984-3.1823-4.8741-8.8105-6.0938-13.156-1.4273-6.4106-1.5729-17.16 6.5625-18.844 1.2408-0.10024 2.4956 0.12852 3.625 0.65625 9.5299 5.5615 13.028 18.488 11.156 28.875-0.079 1.4409-0.5129 2.4346-1.1562 3.1562 4.0337 0.67274 7.6318 2.3101 11.312 6.6875 3.1722 7.0932-1.4294 11.079-8.3125 14.312-23.042 6.0756-32.293 9.4243-55.969 12.75-7.0311 1.8085-14.554-0.45583-15.625-6.5312 5.9622-8.0359 12.336-14.573 19.625-19.281-5.2635-1.0365-9.7112-6.8333-11.625-11.594-4.7116-10.637-0.6888-27.673 12.562-29.094zm-44.062 12.781c4.1531 0.0518 8.5996 0.79029 11.125 3 4.0406 3.5355 4.9375 8.3125 4.9375 8.3125s-3.5417-5.1512-8.7188-5.6562c1.894 2.9042 2.2812 8.0625 2.2812 8.0625s-5.5511-4.935-6.6875-5.1875c-0.3788 6.0609 3.7812 7.8438 3.7812 7.8438s-5.5498-2.0349-6.8125-11c2.3991 0.25254 6.1875 2.9062 6.1875 2.9062s0.12294-2.2521-2.7812-5.1562c2.1466-0.12627 4.1562 0.625 4.1562 0.625s-0.14038-2.5236-14.156-3.2812c1.7993-0.2841 4.1957-0.49982 6.6875-0.46875zm81 52.969-1.0625 4.4375c5e-3 3e-3 -5e-3 0.0287 0 0.0312 3.8924 2.1652 8.8092 2.1773 13.062 0.875 0.44001 8.8881-2.2481 17.807-7.3438 25.031-7.6219 7.2835-11.142 17.324-15.438 26.688-2.1477 6.6393-9.3445 8.302-15.406 8.9375-8.0063 1.5535-16.872-3.1505-18-11.562-3.3177-10.793-2.3043-25.243 8.5312-31.375 11.439-4.6752 23.293-9.393 32.156-18.5l0.0937-0.0937 3.4062-4.4688z" fill="url(#x)"/>
  <path d="m411.38 453.96c3.8576 4.0396 1.7531 12.95-2.3125 17.094-2.5108 4.5669-8.0426 5.4118-12.531 3.5312-6.4456-1.8732-16.496-5.2962-15.531-13.719 0.39436-1.885 1.241-3.3692 2.375-4.5312-23.225 7.032-37.594 27.344-37.594 27.344s1.5848 6.9643 6.4062 8.75 64.295-11.438 72.688-13.938c8.3929-2.5 10.179-14.281 8.75-16.781-1.1528-2.0174-4.766-6.8132-22.25-7.75z" fill="url(#w)"/>
  <path d="m402.92 473.49c-3.4697 0.48779-18.571-3.75-19.821-9.8214-1.8255-8.8667 10.893-9.4643 14.286-9.6429 3.3929-0.17857 12.974-1.2012 13.929 3.2143 1.4286 6.6071-4.9163 15.761-8.3929 16.25z" fill="url(#v)"/>
  <path d="m370.73 421.68c-7.8508 0-13.764 8.3711-13.188 18.688 0.54082 9.6716 6.5909 17.637 13.812 18.594 3.3236-1.9158 6.8468-3.462 10.594-4.625 2.7476-3.4221 4.3425-8.4029 4.0313-13.969-0.57687-10.316-7.3992-18.688-15.25-18.688z" fill="#fff"/>
  <path d="m404.91 421.74c-4.7892 0-7.1271 7.35-5.2188 16.406 1.2057 5.7217 3.814 10.754 6.7812 13.688 3.439 0.1486 6.5035 0.0905 9.3125 0.34375 1.9125-2.8698 2.5066-8.0678 1.25-14.031-1.9083-9.0562-7.3358-16.406-12.125-16.406z" fill="#fff"/>
  <path d="m370.19 423.71c-10.41 1.4425-12.729 15.248-9.1562 23.469 1.7318 4.3017 5.6703 9.7926 10.625 9.3438 4.187-2.8592 10.949-2.6721 11.531-9 2.8272-9.0053-1.8082-23.744-13-23.812z" fill="url(#aa)"/>
  <path transform="matrix(.3415 0 .02065 .42693 323.81 219.94)" d="m140 520.49a15.357 18.661 0 1 1 -30.714 0 15.357 18.661 0 1 1 30.714 0z"/>
  <path d="m404.63 423.77c-4.8984 2.3007-3.6362 9.5816-2.9688 14 1.2716 4.2141 2.5266 10.315 6.6868 12.131 3.3318 0.0763 7.931 1.2903 7.2507-3.694 0.29473-8.0406-2.0922-18.174-9.75-22.312-0.44527-0.11825-0.74438-0.20188-1.2188-0.125z" fill="url(#ab)"/>
  <path transform="matrix(.27914 0 .054329 .40897 341.28 226.26)" d="m140 520.49a15.357 18.661 0 1 1 -30.714 0 15.357 18.661 0 1 1 30.714 0z"/>
  <path transform="matrix(.26317 0 .015914 .32901 336.03 270.91)" d="m140 520.49a15.357 18.661 0 1 1 -30.714 0 15.357 18.661 0 1 1 30.714 0z" fill="url(#z)"/>
  <path transform="matrix(.20476 0 .039852 .29999 358.09 282.98)" d="m140 520.49a15.357 18.661 0 1 1 -30.714 0 15.357 18.661 0 1 1 30.714 0z" fill="url(#y)"/>
  <path transform="matrix(.12849 0 .025008 .18825 375.32 341.14)" d="m140 520.49a15.357 18.661 0 1 1 -30.714 0 15.357 18.661 0 1 1 30.714 0z"/>
  <path transform="matrix(.15127 0 .0091472 .18911 353.5 343.72)" d="m140 520.49a15.357 18.661 0 1 1 -30.714 0 15.357 18.661 0 1 1 30.714 0z"/>
  <path transform="matrix(.10651 0 .020729 .17188 378.86 347.65)" d="m140 520.49a15.357 18.661 0 1 1 -30.714 0 15.357 18.661 0 1 1 30.714 0z" fill="#fff"/>
  <path transform="matrix(.15127 0 .0091472 .18911 352.43 341.4)" d="m140 520.49a15.357 18.661 0 1 1 -30.714 0 15.357 18.661 0 1 1 30.714 0z" fill="#fff"/>
  <path transform="matrix(1 -.12685 0 1 247.48 -62.249)" d="m153.04 540.58a7.9464 4.1071 0 1 1 -15.893 0 7.9464 4.1071 0 1 1 15.893 0z" fill="url(#af)"/>
  <path d="m416.85 493.31s-0.43137 0.0556-0.84375 0.125c-2.6215 10.427-10.344 17.781-10.344 17.781-6.729 2.1803-12.969 0.40625-12.969 0.40625v-10.844c-8.4608 5.3018-14.207 6.0997-21.563 10.031-2.1226 1.1345-4.202 4.2112-5.875 6.9688-1.7432 2.8732-3.1284 10.005-1.4688 18.344 1.8831-2.604 5.282-4.6642 8.3438-5.3438 0.48725-0.0493 0.98149-0.0493 1.4688 0 3.2225 1.1778 2.5046-0.14104 6.4375 0.9375 7.4806 0.75116 9.3761 8.9292 9.5625 15.469 0.22521-0.0971 0.46419-0.18878 0.65625-0.28125 4.8214-2.3214 9.0982-21.098 16.062-28.062 6.9643-6.9643 10.531-16.96 10.531-25.531z" fill="url(#ag)"/>
  <path d="m403.88 492.21c-3.4401 3.0458-6.4491 5.4243-9.1875 7.2812v10.25s4.8214 1.442 10-0.34375c0 0 6.5063-6.5529 8.2188-15.719-1.8955-0.0116-4.2546-0.30812-6.5625-1.3125l-3.7812 10.594 1.3125-10.75z" fill="#fff"/>
  <path d="m372.66 532.74c-3.9335 0.24523-8.3125 5.75-8.3125 5.75 0.33975 1.2884 0.75229 2.6175 1.25 3.9375 3.5317 9.3666 15.64 7.6431 22.031 5.5-8e-3 -1.946-0.21767-5.0905-1.3125-8.375-1.7857-5.3572-4.8393-5.5179-6.625-5.875 1.7857 2.6786 1.4375 6.7812 1.4375 6.7812s-3.5804-7.1518-7.6875-7.6875c-0.2567-0.0335-0.51902-0.0476-0.78125-0.0312z" fill="#d35f5f"/>
  <path d="m319.85 432.99c-0.0226 0.31984-0.0312 0.64187-0.0312 0.96875 0 5.9265 3.7938 10.775 8.625 11.25-1.146-1.6682-2.2192-4.0185-2.6875-7.3438 2.3991 0.25254 6.1875 2.9062 6.1875 2.9062s0.12294-2.2521-2.7812-5.1562c2.1466-0.12627 4.1562 0.625 4.1562 0.625s-0.16655-2.4465-13.469-3.25z" fill="url(#ac)"/>
  <path d="m394.54 430.65c-2.853 0.17071-5.5187 1.2053-7.8438 2.8125 1.8144 5.6319 1.7904 12.007-0.3125 17.094-0.22314 1.1379-0.61931 2.0781-1.1562 2.875 5.0523-1.2179 10.52-1.7762 16.5-1.5938 0.71313-0.0147 1.4119-0.0492 2.125-0.0625-3.3984-3.1823-4.8741-8.8105-6.0938-13.156-0.50675-2.276-0.84835-5.1051-0.71875-7.875-0.53226-0.0582-1.0799-0.0937-1.625-0.0937-0.29895 0-0.57977-0.0177-0.875 0z" fill="url(#ad)"/>
  <path d="m391.04 392.31s-8.1064 4.9292-6.8438 18.188c0 0-3.3936 0.22589-4.6562 2.625l3.2812 4.3125s-7.0539-5.6039-14.125-4.5938c-7.0711 1.0102-18.062 15.531-18.062 15.531s1.4864-7.4116 9.0625-13.094c-10.691 2.5758-12.94 4.5871-17.969 9.0312 3.5734 2.5884 8.9327 4.527 15.5 5.625 2.1852-5.3528 6.4006-9.5448 12.688-10.219 7.1342-0.0913 12.361 4.2758 15.313 10.156 4.2671-0.60183 8.3593-1.4145 12.219-2.4375 0.80211-3.6991 2.8073-6.8143 6.875-7.6562 1.2408-0.10024 2.4956 0.12852 3.625 0.65625 1.092 0.63725 2.0967 1.3718 3.0312 2.1875 3.2388-1.5041 6.0902-3.1305 8.4688-4.875-1.356-0.58702-3.068-1.1475-4.9375-1.3125 0.50508 1.1364 0 3.1562 0 3.1562s-5.8141-9.22-11.875-9.0938c-6.0609 0.12627-9.8438 6.9375-9.8438 6.9375s0.25714-3.1647 2.6562-5.4375l-5.1875-0.625c2.1466-4.9245 6.8438-8.8438 6.8438-8.8438s-4.8222 0.50206-6.9688 3.4062c-0.63135-2.3991-1.6191-4.9124 0.90625-13.625z" fill="url(#ae)"/>
 </g>
</svg>
